<?xml version="1.0" encoding="utf-8"?>
<!-- Generator: Adobe Illustrator 25.2.3, SVG Export Plug-In . SVG Version: 6.00 Build 0)  -->
<svg version="1.1" id="Layer_1" xmlns="http://www.w3.org/2000/svg" xmlns:xlink="http://www.w3.org/1999/xlink" x="0px" y="0px"
	 viewBox="0 0 240 240" style="enable-background:new 0 0 240 240;" xml:space="preserve">
<style type="text/css">
	.st0{display:none;fill:#182D3D;}
	.st1{fill:#B2B2B2;}
	.st2{fill:none;stroke:#FF784A;stroke-width:6;stroke-miterlimit:10;}
	.st3{fill:none;stroke:#5FA7FF;stroke-width:6;stroke-miterlimit:10;}
</style>
<g id="Layer_2_1_">
	<rect class="st0" width="240" height="240"/>
	<polygon class="st1" points="120,223.5 126.4,236.1 145.3,236.1 120,185.5 94.7,236.1 113.7,236.1 	"/>
</g>
<path class="st1" d="M81.2,159.6l-4.1-4.4l9.5-9l4.1,4.4L81.2,159.6z M100.1,141.6l-4.1-4.4l9.5-9l4.1,4.4L100.1,141.6z
	 M119.1,123.6l-4.1-4.4l9.5-9l4.1,4.4L119.1,123.6z M138.1,105.6l-4.1-4.4l9.5-9l4.1,4.4L138.1,105.6z M157,87.6l-4.1-4.4l9.5-9
	l4.1,4.4L157,87.6z M176,69.6l-4.1-4.4l9.5-9l4.1,4.4L176,69.6z M195,51.6l-4.1-4.4l9.5-9l4.1,4.4L195,51.6z"/>
<polygon class="st1" points="89.8,143 16.8,212.9 21,217.3 93.9,147.4 "/>
<polygon class="st1" points="220.2,19.2 187.4,50.4 191.5,54.8 224.4,23.6 "/>
<circle class="st2" cx="92.8" cy="144.9" r="15.9"/>
<circle class="st3" cx="190.6" cy="51.3" r="15.9"/>
</svg>
